<?xml version="1.0" standalone="no"?>
<!DOCTYPE svg PUBLIC "-//W3C//DTD SVG 20010904//EN"
 "http://www.w3.org/TR/2001/REC-SVG-20010904/DTD/svg10.dtd">
<svg version="1.0" xmlns="http://www.w3.org/2000/svg"
 width="920.000000pt" height="643.000000pt" viewBox="0 0 920.000000 643.000000"
 preserveAspectRatio="xMidYMid meet">

<g transform="translate(0.000000,643.000000) scale(0.100000,-0.100000)"
fill="#000000" stroke="none">
<path d="M6704 4425 c31 -69 45 -93 46 -77 0 14 -58 132 -65 132 -3 0 6 -25
19 -55z"/>
<path d="M6775 4260 c24 -71 45 -109 45 -82 0 16 -49 134 -61 147 -5 5 2 -24
16 -65z"/>
<path d="M6831 4110 c0 -8 4 -24 9 -35 5 -13 9 -14 9 -5 0 8 -4 24 -9 35 -5
13 -9 14 -9 5z"/>
<path d="M6850 4040 c0 -8 11 -55 25 -105 59 -217 78 -627 42 -890 -74 -529
-335 -1040 -723 -1415 -388 -374 -900 -616 -1419 -670 -218 -23 -581 -7 -790
34 -24 5 -26 4 -10 -3 11 -5 30 -10 41 -10 12 -1 27 -8 34 -16 7 -8 17 -12 23
-8 7 4 8 -1 4 -13 -6 -17 -6 -18 6 -2 8 10 18 14 26 8 8 -4 27 -7 42 -6 20 2
29 -3 29 -13 1 -14 2 -14 10 0 7 11 20 16 42 13 18 -1 50 -4 71 -5 36 -3 65
-27 50 -42 -3 -4 4 -5 15 -2 12 2 24 -1 28 -6 4 -6 11 -6 20 2 11 9 14 9 14 0
0 -8 4 -8 14 1 8 7 12 17 9 21 -3 5 4 4 16 -2 24 -13 29 -23 7 -15 -8 3 -16 1
-20 -4 -3 -5 5 -8 17 -7 12 1 20 4 17 7 -8 8 19 36 33 34 7 -1 18 -6 26 -10
10 -6 12 -5 7 2 -10 16 7 15 23 0 11 -10 13 -10 7 0 -9 16 6 16 23 -1 10 -8
12 -8 7 0 -4 8 1 11 14 10 14 -1 20 -9 21 -27 0 -22 1 -22 8 -6 6 16 9 17 13
5 4 -11 22 -15 64 -14 57 0 59 1 62 28 2 15 8 25 13 21 5 -3 6 -10 3 -16 -4
-7 -2 -8 5 -4 6 4 9 11 6 16 -10 16 30 16 43 0 10 -13 11 -12 5 5 -6 18 -5 19
12 5 11 -9 16 -10 11 -2 -5 8 2 12 23 12 27 0 31 -4 32 -27 1 -16 1 -32 0 -37
-1 -5 4 -5 11 0 15 12 28 12 47 0 8 -6 12 -5 8 0 -3 5 1 20 9 34 7 14 13 19
14 12 0 -7 5 -10 10 -7 6 4 8 10 6 14 -3 4 1 8 8 8 8 0 12 -11 11 -29 -2 -23
0 -26 11 -17 8 6 11 15 9 20 -3 4 1 23 10 41 8 18 13 24 10 13 -5 -19 -4 -19
9 -2 15 20 66 33 66 18 0 -6 -9 -8 -20 -6 -11 2 -23 -1 -26 -7 -4 -6 -2 -8 4
-4 6 3 14 2 17 -4 9 -15 35 7 35 29 0 14 2 14 10 1 6 -9 5 -20 -3 -30 -6 -8
-2 -6 11 4 23 20 30 32 12 21 -5 -3 -10 -1 -10 5 0 19 25 5 29 -16 2 -10 10
-23 18 -27 12 -7 12 -12 1 -25 -7 -9 -1 -7 13 5 20 18 28 20 38 10 10 -10 12
-9 9 3 -2 8 3 14 10 12 7 -1 17 9 22 22 5 13 14 27 21 32 7 4 10 3 6 -2 -3 -6
-2 -16 4 -24 6 -11 8 -5 5 18 -3 31 -16 58 -16 35 0 -6 -13 -10 -29 -9 -16 0
-27 4 -25 7 2 4 12 6 22 4 9 -1 23 2 29 7 9 7 15 5 19 -6 4 -11 17 -15 45 -14
21 1 36 4 34 8 -2 4 2 7 10 7 8 0 12 -3 10 -7 -2 -4 8 -6 23 -5 19 1 27 7 26
18 -1 9 2 17 8 17 5 0 6 4 3 10 -3 5 -1 19 5 30 9 17 14 19 26 10 7 -7 11 -17
7 -23 -3 -6 -1 -7 5 -3 9 5 9 13 1 29 -12 21 -11 21 8 4 19 -17 33 -14 33 7 0
6 -4 5 -9 -2 -7 -11 -9 -11 -14 1 -4 10 0 14 11 12 9 -1 21 3 25 9 6 7 7 5 4
-5 -3 -9 1 -16 8 -16 8 0 11 7 7 15 -3 9 -1 13 5 9 6 -4 13 -1 16 5 3 7 5 4 6
-7 2 -48 4 -56 15 -45 6 6 16 4 30 -8 20 -16 20 -16 7 1 -12 16 -9 21 12 18 4
-1 10 6 13 14 4 8 10 15 16 15 5 0 6 -6 2 -12 -4 -7 2 -5 13 5 11 9 23 14 27
10 4 -4 4 0 0 10 -3 10 -18 18 -35 18 -59 3 -67 4 -73 11 -3 5 -3 6 1 3 3 -3
12 0 20 6 7 6 13 8 13 3 0 -5 5 -2 11 6 9 13 10 13 6 -2 -4 -11 0 -15 11 -14
9 2 18 11 19 22 3 18 2 18 -6 -1 -8 -16 -10 -17 -10 -3 -1 25 16 31 29 11 10
-16 11 -16 7 3 -3 13 1 21 9 21 8 0 12 -3 9 -5 -3 -3 1 -12 8 -20 10 -13 9
-14 -1 -8 -11 7 -12 4 -3 -13 7 -11 14 -21 17 -21 3 0 3 4 0 8 -2 4 -1 14 5
22 7 13 9 12 9 -2 0 -9 4 -19 9 -23 6 -3 6 6 1 25 -10 35 -4 40 11 8 9 -22 9
-22 6 3 -3 18 1 25 15 26 16 2 23 -8 19 -30 -1 -5 3 -6 7 -3 5 3 8 18 6 33 -4
25 -3 26 6 8 9 -18 10 -18 7 6 -2 15 1 26 8 26 7 0 11 -10 8 -21 -2 -12 3 -5
11 14 7 19 11 38 9 43 -2 4 7 8 21 8 14 1 39 2 55 3 50 2 70 30 74 103 0 12 4
20 8 17 4 -2 10 0 14 6 4 6 11 8 16 5 5 -4 9 -2 9 3 0 8 7 10 50 14 13 2 19 7
15 17 -4 11 -2 11 8 3 18 -15 27 -5 27 30 0 20 4 27 13 22 9 -5 9 -4 0 6 -15
16 1 50 23 50 9 0 12 -5 8 -12 -4 -7 -3 -8 5 -4 6 4 9 11 6 16 -3 5 8 15 25
24 17 8 28 11 26 7 -3 -4 5 -7 17 -7 19 0 22 6 24 40 2 21 10 47 18 56 12 13
12 19 2 30 -6 8 -8 11 -3 7 5 -4 15 -2 23 5 8 6 26 12 40 13 36 1 52 28 34 57
l-14 23 23 -20 c13 -11 20 -14 16 -8 -12 21 -16 54 -5 48 5 -4 7 -10 4 -15 -3
-5 -2 -11 2 -13 12 -7 13 61 3 88 -6 15 -6 27 1 30 5 4 9 3 8 -2 -5 -31 3 -43
27 -41 14 2 31 9 37 17 7 8 7 12 2 9 -6 -4 -16 2 -23 13 -7 10 -9 19 -5 18 25
-4 35 3 30 21 -3 10 1 24 9 31 8 6 12 14 10 18 -3 4 7 8 21 9 59 5 32 15 -39
15 -10 0 -14 5 -11 14 5 12 7 12 14 1 6 -9 9 -4 10 17 1 17 1 34 0 38 -1 5 4
5 10 1 8 -5 10 -2 7 7 -3 8 3 25 13 37 17 21 18 21 16 3 0 -11 -6 -17 -12 -14
-5 4 -7 2 -2 -2 4 -5 1 -18 -7 -31 -15 -22 -18 -66 -4 -58 4 3 5 11 2 19 -3 7
3 26 12 41 10 15 19 33 20 41 2 8 6 22 10 31 4 9 8 26 10 37 1 11 5 31 9 45 4
14 7 31 7 38 1 14 41 35 70 36 22 1 47 36 40 55 -4 10 -1 12 9 6 11 -7 12 -6
2 7 -7 8 -10 18 -6 21 3 4 7 18 8 32 0 18 -5 25 -17 25 -10 0 -18 5 -18 11 0
5 4 8 9 5 5 -4 4 5 -2 18 -7 13 -16 22 -21 19 -5 -4 -6 0 0 8 5 8 9 17 10 22
1 4 2 8 4 10 1 1 3 10 5 20 2 11 6 21 9 24 7 7 1 -50 -7 -63 -3 -6 -1 -19 6
-28 11 -15 13 -11 12 29 -1 25 4 56 10 68 6 12 11 51 10 86 -1 66 0 68 50 74
22 3 29 9 27 22 -2 12 1 15 10 10 10 -6 11 -5 1 6 -19 20 -16 33 5 18 15 -13
16 -12 4 3 -8 10 -9 19 -3 22 5 4 7 19 5 33 -7 40 -17 44 -11 6 3 -18 1 -35
-4 -39 -5 -3 -9 11 -9 30 0 28 -4 35 -22 38 -22 3 -30 22 -19 43 3 6 6 26 7
45 1 19 2 41 3 48 1 6 10 12 21 12 11 0 20 5 20 11 0 5 -5 7 -11 3 -8 -4 -8
-1 -2 12 6 11 11 43 12 72 2 40 -1 52 -12 52 -15 0 -30 34 -19 44 3 3 5 35 6
70 0 36 4 62 8 60 13 -8 9 11 -4 25 -10 11 -10 13 0 7 7 -5 12 -1 12 9 0 9 -3
14 -7 12 -8 -5 -10 50 -2 58 3 2 6 -8 7 -22 1 -15 5 -29 8 -32 3 -3 4 10 1 29
-2 20 -9 34 -16 32 -16 -3 -27 31 -35 105 -6 57 -5 62 12 58 11 -2 19 2 19 11
0 10 -4 11 -14 3 -9 -8 -13 -8 -13 0 0 19 -2 25 -12 45 -7 12 -7 16 0 12 6 -3
9 2 7 11 -1 10 3 25 9 33 10 13 9 13 -6 1 -10 -7 -15 -18 -11 -24 3 -6 1 -7
-5 -3 -9 5 -9 13 -1 28 7 13 7 18 1 14 -11 -7 -16 7 -26 64 -12 70 -15 80 -30
102 -11 15 -16 17 -16 8z m117 -1105 c0 -8 -4 -12 -9 -9 -5 3 -6 10 -3 15 9
13 12 11 12 -6z m5 -32 c-6 -2 -9 -10 -5 -16 12 -20 10 -44 -3 -44 -9 0 -10 5
-3 19 9 17 5 22 -15 19 -5 -1 -4 5 4 13 7 9 18 16 24 15 7 0 6 -2 -2 -6z
m-119 -359 c-4 -12 -8 -13 -14 -3 -9 15 -2 32 11 24 5 -3 6 -13 3 -21z m22
-33 c-3 -5 -1 -12 5 -16 6 -4 7 -12 3 -18 -4 -7 -8 -21 -8 -32 -1 -11 -6 -29
-13 -40 -11 -18 -12 -17 -7 10 9 45 10 49 18 62 4 6 3 14 -3 18 -10 6 -5 25 6
25 3 0 3 -4 -1 -9z m-236 -554 c8 -10 7 -14 -2 -14 -8 0 -14 6 -14 14 0 7 1
13 2 13 2 0 8 -6 14 -13z m-79 -141 c0 -23 -16 -27 -31 -8 -13 16 -13 16 5 2
18 -14 19 -13 13 3 -3 9 -2 17 3 17 6 0 10 -6 10 -14z m-90 -70 c0 -3 -4 -8
-10 -11 -5 -3 -10 -1 -10 4 0 6 5 11 10 11 6 0 10 -2 10 -4z m-39 -87 c-5 -13
-10 -19 -10 -12 -1 15 10 45 15 40 3 -2 0 -15 -5 -28z m-144 -151 c-3 -8 -6
-5 -6 6 -1 11 2 17 5 13 3 -3 4 -12 1 -19z m-150 -123 c0 -8 -8 -22 -17 -30
-15 -14 -18 -14 -23 -1 -4 11 -1 13 11 9 9 -3 14 -3 10 2 -4 4 -3 14 3 22 14
17 16 16 16 -2z m-322 -225 c-3 -6 -11 -7 -17 -4 -6 4 -17 -1 -25 -11 -7 -11
-13 -15 -13 -11 0 4 -6 4 -12 -1 -21 -12 -35 -12 -35 2 0 7 7 12 16 12 32 0
42 3 37 11 -2 4 9 9 25 10 19 2 28 -1 24 -8z m-282 -103 c3 -8 -1 -14 -8 -14
-7 0 -11 6 -8 14 3 7 6 13 8 13 2 0 5 -6 8 -13z m-180 -48 c-6 -6 -9 -19 -6
-28 4 -12 3 -13 -5 -3 -7 11 -11 10 -16 -4 -3 -9 -9 -14 -13 -11 -3 4 -12 2
-18 -3 -9 -7 -17 -5 -26 7 -9 11 -10 14 -1 9 7 -4 12 -2 12 6 0 9 3 9 10 -2 9
-13 10 -13 10 0 0 13 1 13 10 0 9 -13 10 -13 11 0 1 8 1 19 0 23 -1 5 3 6 8 3
5 -4 12 -2 16 4 3 5 9 10 13 10 3 0 1 -5 -5 -11z m-340 -89 c-3 -12 -8 -19
-11 -16 -5 6 5 36 12 36 2 0 2 -9 -1 -20z m-46 -12 c-3 -8 -6 -5 -6 6 -1 11 2
17 5 13 3 -3 4 -12 1 -19z m20 0 c-3 -8 -6 -5 -6 6 -1 11 2 17 5 13 3 -3 4
-12 1 -19z m-550 -2 c4 -5 3 -6 -4 -2 -6 3 -15 2 -18 -4 -5 -8 -11 -8 -19 -1
-7 6 -15 8 -18 5 -3 -3 -8 -1 -11 4 -8 11 59 9 70 -2z"/>
<path d="M6995 3500 c-4 -6 -8 -25 -10 -43 -4 -26 -2 -29 6 -14 6 10 8 21 5
24 -3 3 -1 14 5 24 10 20 5 27 -6 9z"/>
<path d="M6999 3238 c0 -24 -2 -52 -4 -62 -2 -11 1 -27 6 -35 7 -12 8 -10 3 9
-6 23 -6 24 12 10 18 -14 18 -14 5 3 -9 12 -14 37 -12 68 1 27 0 49 -3 49 -3
0 -6 -19 -7 -42z"/>
<path d="M6913 2805 c0 -6 6 -12 12 -12 6 0 12 6 12 12 0 6 -6 12 -12 12 -6 0
-12 -6 -12 -12z"/>
<path d="M6901 2611 c1 -70 10 -94 26 -69 4 7 8 25 9 41 1 15 2 28 4 30 1 1 3
9 5 17 1 8 4 22 6 30 3 10 -5 16 -23 18 l-28 3 1 -70z m39 39 c-6 -11 -8 -20
-4 -20 3 0 2 -6 -3 -12 -6 -7 -9 -26 -8 -41 1 -15 -2 -30 -6 -33 -5 -3 -8 20
-6 50 1 30 5 52 10 49 4 -2 7 3 7 11 0 9 5 16 10 16 7 0 7 -6 0 -20z"/>
<path d="M6796 2361 c-19 -7 -19 -8 0 -13 13 -3 21 0 21 8 0 8 -1 14 -1 13 -1
0 -10 -4 -20 -8z"/>
<path d="M6780 2330 c0 -5 1 -11 2 -12 1 -2 -4 -14 -12 -28 -8 -17 -9 -22 -1
-14 7 6 14 20 16 30 1 11 8 18 15 16 6 -1 9 2 5 8 -8 13 -25 13 -25 0z"/>
<path d="M6756 2231 c-8 -13 -4 -111 5 -105 3 2 5 22 3 44 -1 23 1 38 7 35 5
-4 9 -1 9 6 0 7 3 9 6 6 4 -4 1 -13 -6 -21 -6 -9 -10 -20 -8 -25 1 -5 11 6 20
24 15 31 15 33 0 30 -9 -1 -20 2 -23 7 -4 6 -9 6 -13 -1z"/>
<path d="M6686 2041 c-7 -9 -11 -22 -8 -30 2 -8 -3 -20 -13 -27 -16 -12 -16
-13 3 -11 11 0 20 4 20 7 0 3 0 19 1 35 1 22 4 26 10 15 6 -8 7 -18 4 -24 -3
-5 -1 -6 6 -2 6 4 9 12 5 17 -3 5 -1 16 5 23 16 19 -16 16 -33 -3z"/>
<path d="M6317 1587 c-3 -8 1 -14 8 -14 7 0 11 6 8 14 -3 7 -6 13 -8 13 -2 0
-5 -6 -8 -13z"/>
<path d="M6169 1443 c-13 -16 -12 -17 4 -4 9 7 17 15 17 17 0 8 -8 3 -21 -13z"/>
<path d="M3120 1181 c-96 -32 -269 -89 -383 -126 -193 -62 -207 -68 -187 -82
11 -8 17 -19 14 -25 -4 -7 -2 -8 4 -4 6 4 9 14 6 24 -5 15 -5 15 6 -1 6 -9 8
-22 5 -27 -4 -6 -1 -9 7 -8 7 2 12 -3 10 -11 -3 -12 -1 -12 14 0 16 12 17 12
11 -4 -4 -11 -3 -16 4 -12 6 4 8 13 5 21 -3 8 -1 14 5 14 6 0 7 5 3 11 -4 8
-9 7 -16 -2 -8 -12 -9 -12 -6 0 4 14 38 26 37 13 -3 -20 2 -24 14 -9 11 16 12
15 14 -9 1 -19 -1 -23 -8 -13 -7 12 -9 12 -9 -1 0 -13 -1 -13 -10 0 -7 12 -9
10 -7 -7 0 -12 6 -19 12 -15 5 4 15 7 20 7 6 0 9 8 9 18 -1 9 1 17 5 17 4 0 7
8 7 18 -1 9 3 18 8 19 5 1 12 7 16 13 5 8 9 7 13 -5 5 -11 3 -14 -6 -9 -8 5
-7 2 2 -9 17 -22 19 -21 17 5 -1 17 5 22 32 24 19 1 40 5 48 8 7 3 13 2 13 -2
-4 -22 3 -42 19 -59 9 -10 14 -14 10 -8 -15 23 -16 62 -3 62 8 0 13 -3 12 -6
-1 -3 3 -7 8 -8 6 -2 10 1 10 6 0 5 4 13 9 18 5 4 7 3 3 -2 -3 -6 3 -22 14
-35 14 -18 17 -20 12 -6 -4 13 -3 17 5 12 8 -4 16 2 21 16 7 16 10 18 10 6 1
-9 5 -19 10 -22 5 -4 7 3 4 14 -3 12 1 22 11 26 9 3 14 9 11 13 -2 4 2 8 10 8
8 0 12 -3 10 -7 -4 -6 81 -6 95 0 3 1 7 2 10 2 3 0 7 9 8 21 5 48 10 62 23 58
8 -2 19 -4 24 -5 6 -1 15 -5 21 -8 6 -4 11 -1 11 7 0 7 -8 12 -18 10 -10 -2
-21 0 -24 5 -3 5 4 7 15 5 11 -2 20 1 20 6 0 5 6 4 14 -3 8 -7 12 -16 10 -20
-2 -4 0 -10 6 -13 6 -4 9 -1 8 6 -2 7 2 13 9 14 6 0 15 3 19 7 3 4 -3 6 -14 3
-12 -2 -24 0 -26 4 -3 4 7 7 21 6 25 -1 30 -8 35 -56 1 -9 9 -15 18 -14 8 1
21 -2 28 -8 7 -6 12 -6 11 -1 -4 23 2 26 16 8 15 -19 15 -19 9 1 -6 16 -4 18
6 8 11 -10 17 -10 29 0 12 10 14 9 7 -8 -5 -14 -4 -17 4 -9 6 6 13 24 16 40 5
29 24 49 34 36 5 -7 27 -14 48 -15 6 0 12 -4 12 -9 0 -4 3 -7 8 -6 17 5 50
-14 61 -35 7 -13 9 -14 6 -4 -3 13 -1 16 8 10 6 -4 15 -8 20 -9 4 -1 9 -3 12
-4 8 -4 24 -7 41 -9 8 0 13 -5 10 -9 -2 -4 7 -8 22 -9 63 -2 73 -4 67 -13 -4
-6 1 -7 11 -3 12 4 15 3 10 -5 -5 -8 -2 -10 9 -6 8 4 26 -1 40 -10 16 -10 26
-12 30 -5 10 15 4 19 -72 39 -102 27 -265 91 -380 149 -57 28 -113 51 -125 50
-13 0 -102 -27 -198 -58z m317 -78 c0 -7 -4 -10 -8 -7 -4 2 -11 0 -14 -6 -4
-7 -12 -7 -18 -2 -13 9 -27 10 -42 1 -18 -10 -38 -4 -40 11 -2 12 10 15 60 15
42 0 62 -4 62 -12z m-440 -66 c-8 -20 -47 -10 -48 12 -1 14 -2 13 -6 -1 -2
-10 -9 -18 -14 -18 -6 0 -5 8 1 20 6 11 15 18 20 15 5 -3 12 0 15 6 10 16 39
-15 32 -34z m128 15 c-10 -9 -15 -11 -11 -4 4 6 2 12 -3 12 -6 0 -11 -6 -12
-12 0 -10 -2 -10 -6 0 -4 9 -8 10 -18 2 -10 -8 -15 -8 -21 1 -4 7 -3 9 4 5 6
-3 13 -2 16 3 4 5 17 8 31 6 14 -1 25 2 25 8 0 6 3 7 7 3 4 -3 -1 -14 -12 -24z
m-212 -7 c-3 -9 -8 -14 -10 -11 -3 3 -2 9 2 15 9 16 15 13 8 -4z m24 -47 c-3
-8 -6 -5 -6 6 -1 11 2 17 5 13 3 -3 4 -12 1 -19z m20 0 c-3 -8 -6 -5 -6 6 -1
11 2 17 5 13 3 -3 4 -12 1 -19z m-342 -44 c0 -25 -10 -23 -17 4 -3 10 0 19 6
19 6 0 11 -10 11 -23z"/>
<path d="M3325 1099 c-3 -4 2 -6 10 -5 21 3 28 13 10 13 -9 0 -18 -4 -20 -8z"/>
<path d="M3396 1098 c3 -5 10 -6 15 -3 13 9 11 12 -6 12 -8 0 -12 -4 -9 -9z"/>
<path d="M2965 1059 c-4 -6 -4 -13 -1 -16 3 -4 6 -1 6 6 0 7 5 9 12 5 7 -4 8
-3 4 4 -9 15 -13 15 -21 1z"/>
<path d="M5921 1224 c0 -11 3 -14 6 -6 3 7 2 16 -1 19 -3 4 -6 -2 -5 -13z"/>
<path d="M3160 1116 c0 -2 8 -10 18 -17 15 -13 16 -12 3 4 -13 16 -21 21 -21
13z"/>
<path d="M5567 1105 c-4 -8 -3 -16 1 -19 4 -3 9 4 9 15 2 23 -3 25 -10 4z"/>
<path d="M3910 1006 c0 -2 9 -6 20 -9 11 -3 18 -1 14 4 -5 9 -34 13 -34 5z"/>
<path d="M2766 988 c3 -5 10 -6 15 -3 13 9 11 12 -6 12 -8 0 -12 -4 -9 -9z"/>
<path d="M2796 983 c-6 -14 -5 -15 5 -6 7 7 10 15 7 18 -3 3 -9 -2 -12 -12z"/>
<path d="M5370 986 c0 -8 4 -17 9 -20 5 -4 7 3 4 14 -6 23 -13 26 -13 6z"/>
<path d="M2710 981 c0 -6 4 -13 10 -16 6 -3 7 1 4 9 -7 18 -14 21 -14 7z"/>
<path d="M2876 977 c3 -10 9 -15 12 -12 3 3 0 11 -7 18 -10 9 -11 8 -5 -6z"/>
<path d="M2909 988 c-5 -18 -6 -38 -1 -34 7 8 12 36 6 36 -2 0 -4 -1 -5 -2z"/>
<path d="M2495 970 c-3 -6 1 -7 9 -4 18 7 21 14 7 14 -6 0 -13 -4 -16 -10z"/>
<path d="M4125 931 c-3 -5 -2 -12 3 -15 5 -3 9 1 9 9 0 17 -3 19 -12 6z"/>
<path d="M5055 919 c-4 -6 -5 -12 -2 -15 2 -3 7 2 10 11 7 17 1 20 -8 4z"/>
<path d="M5031 904 c0 -11 3 -14 6 -6 3 7 2 16 -1 19 -3 4 -6 -2 -5 -13z"/>
<path d="M4556 868 c3 -5 10 -6 15 -3 13 9 11 12 -6 12 -8 0 -12 -4 -9 -9z"/>
<path d="M4590 871 c0 -6 4 -13 10 -16 6 -3 7 1 4 9 -7 18 -14 21 -14 7z"/>
<path d="M4616 868 c3 -5 10 -6 15 -3 13 9 11 12 -6 12 -8 0 -12 -4 -9 -9z"/>
</g>
</svg>
