<?xml version="1.0" standalone="no"?>
<!DOCTYPE svg PUBLIC "-//W3C//DTD SVG 20010904//EN"
 "http://www.w3.org/TR/2001/REC-SVG-20010904/DTD/svg10.dtd">
<svg version="1.0" xmlns="http://www.w3.org/2000/svg"
 width="195.000000pt" height="148.000000pt" viewBox="0 0 195.000000 148.000000"
 preserveAspectRatio="xMidYMid meet">

<g transform="translate(0.000000,148.000000) scale(0.100000,-0.100000)"
fill="#000000" stroke="none">
<path d="M900 1462 c-39 -21 -70 -72 -70 -117 0 -64 63 -125 130 -125 67 0
130 61 130 125 0 68 -65 135 -130 135 -14 0 -41 -8 -60 -18z m115 -57 c16 -15
25 -36 25 -55 0 -19 -9 -40 -25 -55 -15 -16 -36 -25 -55 -25 -19 0 -40 9 -55
25 -16 15 -25 36 -25 55 0 19 9 40 25 55 15 16 36 25 55 25 19 0 40 -9 55 -25z"/>
<path d="M920 1400 c-13 -9 -13 -11 0 -19 17 -12 30 -5 30 15 0 16 -9 18 -30
4z"/>
<path d="M970 1396 c0 -20 13 -27 30 -15 13 8 13 10 0 19 -21 14 -30 12 -30
-4z"/>
<path d="M900 1350 c0 -13 5 -20 13 -17 6 2 12 10 12 17 0 7 -6 15 -12 18 -8
2 -13 -5 -13 -18z"/>
<path d="M995 1360 c-7 -12 2 -30 16 -30 5 0 9 9 9 20 0 21 -15 27 -25 10z"/>
<path d="M945 1351 c-7 -12 12 -24 25 -16 11 7 4 25 -10 25 -5 0 -11 -4 -15
-9z"/>
<path d="M917 1314 c-9 -10 2 -24 19 -24 8 0 14 7 14 15 0 15 -21 21 -33 9z"/>
<path d="M970 1305 c0 -10 7 -15 18 -13 21 4 19 22 -2 26 -10 2 -16 -3 -16
-13z"/>
<path d="M631 1316 l-33 -34 37 -41 c22 -24 46 -41 59 -41 26 0 482 -452 472
-468 -9 -15 62 -92 84 -92 10 0 30 14 45 31 l26 32 -42 43 c-24 24 -52 44 -64
44 -28 0 -465 437 -465 466 0 17 -66 94 -81 94 -3 0 -20 -15 -38 -34z m79 -55
c0 -12 -20 -25 -27 -18 -7 7 6 27 18 27 5 0 9 -4 9 -9z m530 -530 c0 -12 -20
-25 -27 -18 -7 7 6 27 18 27 5 0 9 -4 9 -9z"/>
<path d="M1205 1310 c-21 -22 -39 -49 -40 -60 -1 -12 -42 -62 -94 -114 -72
-72 -89 -94 -79 -104 7 -7 17 -12 23 -12 6 0 51 41 100 90 57 58 97 90 111 90
13 0 37 17 59 41 l37 41 -33 34 c-18 19 -36 34 -39 34 -3 0 -23 -18 -45 -40z
m33 -59 c3 -8 -1 -12 -9 -9 -7 2 -15 10 -17 17 -3 8 1 12 9 9 7 -2 15 -10 17
-17z"/>
<path d="M815 880 c-55 -55 -98 -90 -110 -90 -12 0 -40 -20 -64 -44 l-42 -43
26 -32 c15 -17 35 -31 45 -31 22 0 93 77 84 91 -4 6 37 55 90 108 93 93 96 98
78 114 -17 16 -23 12 -107 -73z m-107 -159 c3 -8 -1 -12 -9 -9 -7 2 -15 10
-17 17 -3 8 1 12 9 9 7 -2 15 -10 17 -17z"/>
<path d="M959 818 c-6 -12 -15 -33 -20 -47 l-7 -26 -1 25 c-2 24 -2 24 -16 6
-35 -47 -7 -116 47 -116 55 0 76 67 37 121 -11 16 -18 36 -15 44 9 23 -12 17
-25 -7z"/>
<path d="M660 491 c0 -6 5 -13 10 -16 6 -3 10 -31 10 -61 0 -30 -4 -54 -10
-54 -5 0 -10 -7 -10 -15 0 -12 15 -15 79 -15 l79 0 4 40 c3 36 1 40 -19 40
-18 0 -23 -6 -23 -25 0 -20 -5 -25 -24 -25 -23 0 -25 3 -25 55 0 30 4 55 9 55
4 0 10 7 14 15 4 12 -4 15 -44 15 -28 0 -50 -4 -50 -9z"/>
<path d="M941 478 c17 -31 20 -108 4 -114 -6 -3 -12 -11 -12 -19 0 -12 15 -15
66 -15 89 1 105 14 105 85 1 71 -15 84 -107 85 -67 0 -68 0 -56 -22z m107 -10
c13 -13 16 -66 6 -92 -3 -9 -17 -16 -30 -16 -22 0 -24 4 -24 53 0 30 3 57 7
60 10 11 28 8 41 -5z"/>
<path d="M1230 486 c0 -8 4 -17 8 -20 12 -7 12 -95 1 -102 -5 -3 -9 -12 -9
-20 0 -20 103 -19 135 2 24 15 36 64 17 64 -5 0 -7 14 -4 31 6 42 -19 58 -90
59 -44 0 -58 -3 -58 -14z m100 -37 c0 -12 -7 -19 -20 -19 -22 0 -29 35 -7 43
18 6 27 -2 27 -24z m8 -67 c3 -18 -1 -22 -22 -22 -19 0 -26 5 -26 18 0 39 43
43 48 4z"/>
<path d="M457 153 l1 -58 34 -1 c40 -2 58 11 58 42 0 19 -7 26 -30 31 -21 4
-30 11 -30 24 0 11 -7 19 -18 19 -14 0 -17 -9 -15 -57z m63 -23 c0 -11 -7 -20
-15 -20 -8 0 -15 9 -15 20 0 11 7 20 15 20 8 0 15 -9 15 -20z"/>
<path d="M157 158 c7 -51 18 -68 47 -68 33 1 56 24 51 50 -3 13 0 29 6 37 14
16 -12 29 -37 19 -13 -5 -14 -9 -4 -21 16 -19 4 -65 -16 -65 -14 0 -16 8 -12
45 5 42 4 45 -17 45 -21 0 -23 -3 -18 -42z"/>
<path d="M995 145 l0 -55 43 0 c38 0 42 2 42 25 0 14 -4 25 -10 25 -5 0 -10
-7 -10 -15 0 -8 -7 -15 -16 -15 -14 0 -16 8 -12 45 5 41 4 45 -16 45 -19 0
-21 -6 -21 -55z"/>
<path d="M325 129 c0 -34 3 -39 22 -39 25 0 29 10 12 27 -16 16 -3 32 21 26
13 -4 20 0 20 9 0 11 -11 15 -38 15 -37 0 -37 0 -37 -38z"/>
<path d="M614 158 c-5 -8 0 -9 14 -6 35 9 35 -9 1 -21 -43 -15 -32 -36 19 -37
44 -1 45 3 26 64 -4 15 -50 16 -60 0z m36 -38 c0 -5 -5 -10 -11 -10 -5 0 -7 5
-4 10 3 6 8 10 11 10 2 0 4 -4 4 -10z"/>
<path d="M745 130 c0 -35 3 -40 22 -40 20 0 22 4 17 30 -5 24 -3 30 11 30 14
0 16 -6 12 -30 -6 -27 -4 -30 18 -30 25 0 32 10 18 24 -5 4 -8 18 -8 29 0 19
-6 22 -45 24 l-45 2 0 -39z"/>
<path d="M1136 143 c3 -16 7 -33 9 -39 2 -6 22 -11 45 -11 32 0 40 3 36 14 -4
8 -6 26 -6 39 0 17 -6 24 -20 24 -22 0 -26 -10 -10 -26 13 -13 -5 -39 -20 -29
-6 4 -10 18 -7 31 3 18 0 24 -15 24 -15 0 -17 -5 -12 -27z"/>
<path d="M1270 164 c0 -4 8 -13 18 -20 16 -13 16 -15 0 -28 -22 -16 -23 -26
-3 -26 7 0 19 8 24 18 10 16 10 16 11 0 0 -11 8 -18 20 -18 11 0 20 4 20 8 0
5 -9 17 -20 27 -11 10 -20 24 -20 32 0 7 -11 13 -25 13 -14 0 -25 -3 -25 -6z"/>
<path d="M1330 155 c0 -9 6 -12 15 -9 8 4 15 10 15 15 0 5 -7 9 -15 9 -8 0
-15 -7 -15 -15z"/>
<path d="M1406 143 c3 -16 7 -33 9 -40 2 -6 23 -11 50 -11 35 1 45 4 40 15 -3
8 -5 26 -5 39 0 17 -6 24 -19 24 -15 0 -19 -6 -18 -26 1 -15 -4 -29 -10 -31
-9 -3 -13 6 -13 26 0 24 -4 31 -20 31 -17 0 -19 -5 -14 -27z"/>
<path d="M1555 129 c0 -36 2 -39 27 -39 28 0 39 15 16 22 -21 7 -1 37 21 31
14 -4 21 -1 21 9 0 11 -12 15 -43 15 l-42 1 0 -39z"/>
<path d="M1670 165 c0 -3 11 -23 25 -45 24 -38 24 -40 5 -40 -11 0 -20 -7 -20
-15 0 -16 18 -20 35 -7 9 6 55 96 55 107 0 3 -9 5 -21 5 -15 0 -19 -4 -14 -19
3 -11 1 -22 -5 -26 -10 -6 -14 7 -11 33 1 7 -9 12 -24 12 -14 0 -25 -2 -25 -5z"/>
</g>
</svg>
