<?xml version="1.0" encoding="UTF-8"?>
<!DOCTYPE svg PUBLIC "-//W3C//DTD SVG 1.1//EN" "http://www.w3.org/Graphics/SVG/1.1/DTD/svg11.dtd">
<svg xmlns="http://www.w3.org/2000/svg" version="1.1" width="200px" height="200px" style="shape-rendering:geometricPrecision; text-rendering:geometricPrecision; image-rendering:optimizeQuality; fill-rule:evenodd; clip-rule:evenodd" xmlns:xlink="http://www.w3.org/1999/xlink">
<g><path style="opacity:1" fill="#fefefe" d="M -0.5,-0.5 C 66.1667,-0.5 132.833,-0.5 199.5,-0.5C 199.5,66.1667 199.5,132.833 199.5,199.5C 132.833,199.5 66.1667,199.5 -0.5,199.5C -0.5,132.833 -0.5,66.1667 -0.5,-0.5 Z"/></g>
<g><path style="opacity:1" fill="#567083" d="M 108.5,55.5 C 108.167,55.5 107.833,55.5 107.5,55.5C 105.915,56.533 104.581,57.8664 103.5,59.5C 102.027,58.928 100.693,58.0946 99.5,57C 100.833,56.3333 100.833,55.6667 99.5,55C 101.167,54.6667 102.833,54.3333 104.5,54C 104,53.5 103.5,53 103,52.5C 100.919,53.3331 98.7522,53.3331 96.5,52.5C 96.7852,54.288 96.4519,55.9547 95.5,57.5C 94.2888,56.7261 94.2888,55.8928 95.5,55C 94.7562,53.9614 93.7562,53.4614 92.5,53.5C 92.6107,52.8826 92.944,52.3826 93.5,52C 92.1763,50.1283 90.6763,49.295 89,49.5C 88.5439,50.7441 89.0439,51.5774 90.5,52C 88.8863,54.1267 86.8863,55.6267 84.5,56.5C 87.0613,54.3226 87.0613,52.1559 84.5,50C 85.8491,49.2276 86.6824,48.0609 87,46.5C 88,47.8333 89,47.8333 90,46.5C 92.1079,49.7902 94.4413,50.1235 97,47.5C 97.3333,48.1667 97.6667,48.8333 98,49.5C 99.8082,49.1119 101.475,49.1119 103,49.5C 105.015,51.346 107.181,53.0127 109.5,54.5C 109.376,55.1067 109.043,55.44 108.5,55.5 Z"/></g>
<g><path style="opacity:1" fill="#21425b" d="M 103.5,59.5 C 106.46,60.4157 107.793,59.0823 107.5,55.5C 107.833,55.5 108.167,55.5 108.5,55.5C 108.5,56.5 108.5,57.5 108.5,58.5C 108.056,60.1132 107.056,61.2798 105.5,62C 106.928,62.5791 108.262,62.4124 109.5,61.5C 110.625,63.1288 111.959,64.6288 113.5,66C 112.786,67.3431 113.12,68.6764 114.5,70C 112.699,70.3173 112.366,70.984 113.5,72C 110.775,75.003 110.442,78.003 112.5,81C 109.052,83.3558 108.719,86.1891 111.5,89.5C 111.081,90.6721 110.415,91.6721 109.5,92.5C 111.332,95.946 110.665,97.446 107.5,97C 110.371,99.7028 113.038,102.536 115.5,105.5C 113.284,104.797 111.451,103.464 110,101.5C 111.118,104.97 113.452,107.637 117,109.5C 120.622,116.106 119.788,122.106 114.5,127.5C 112.522,128.317 111.522,129.817 111.5,132C 112.375,135.207 113.709,138.207 115.5,141C 114.86,143.12 113.86,144.954 112.5,146.5C 111.403,138.628 110.57,138.628 110,146.5C 109.802,144.618 109.302,142.952 108.5,141.5C 108.34,139.847 107.674,138.514 106.5,137.5C 106.205,135.577 105.372,133.91 104,132.5C 103.536,133.094 103.369,133.761 103.5,134.5C 101.226,132.855 101.226,131.355 103.5,130C 101.167,129.333 98.8333,129.333 96.5,130C 101.671,132.913 103.671,137.08 102.5,142.5C 101.166,139.645 99.1664,137.145 96.5,135C 95.5632,134.308 94.8966,134.475 94.5,135.5C 87.2221,131.091 86.5555,125.758 92.5,119.5C 92.0445,122.203 91.3779,124.87 90.5,127.5C 90.5565,128.737 91.0565,129.737 92,130.5C 93.3309,126.174 94.4976,121.84 95.5,117.5C 97.144,118.366 98.8107,118.866 100.5,119C 98.3812,116.607 95.7145,115.274 92.5,115C 92.8333,114.667 93.1667,114.333 93.5,114C 92.1667,113.667 90.8333,113.333 89.5,113C 89.8333,112.667 90.1667,112.333 90.5,112C 89.1667,111.667 87.8333,111.333 86.5,111C 87.1667,110.667 87.8333,110.333 88.5,110C 87,109.5 85.5,109 84,108.5C 83.2352,108.57 82.7352,108.903 82.5,109.5C 81.8333,109.167 81.1667,108.833 80.5,108.5C 80.5,108.167 80.5,107.833 80.5,107.5C 83.1873,107.664 85.854,107.497 88.5,107C 90.2552,106.28 91.0885,105.113 91,103.5C 87.3221,106.255 83.3221,106.921 79,105.5C 77.6244,105.684 76.7911,106.351 76.5,107.5C 74.347,109.794 72.6803,112.46 71.5,115.5C 70.7001,118.714 70.3668,121.881 70.5,125C 71.1258,125.75 71.6258,126.584 72,127.5C 73.2692,126.095 73.7692,124.429 73.5,122.5C 75.6186,126.864 74.1186,129.197 69,129.5C 65.7974,128.246 64.7974,125.913 66,122.5C 66.3333,122.167 66.6667,121.833 67,121.5C 67.1922,123.577 67.6922,125.577 68.5,127.5C 68.8834,125.479 69.2167,123.145 69.5,120.5C 69.313,115.226 68.813,115.226 68,120.5C 66.7261,114.656 65.2261,108.989 63.5,103.5C 64.1667,102.833 64.8333,102.167 65.5,101.5C 65.3345,97.4862 65.5012,93.4862 66,89.5C 66.8373,87.9926 68.0039,87.4926 69.5,88C 72.0574,90.8922 74.224,94.0589 76,97.5C 74.5687,89.537 77.2353,83.537 84,79.5C 85.7411,76.6907 86.9078,73.6907 87.5,70.5C 86.0413,70.4326 84.7079,70.7659 83.5,71.5C 81.4833,72.874 79.4833,72.7074 77.5,71C 79.8253,69.1188 79.8253,67.4522 77.5,66C 78.5549,64.4928 79.5549,62.9928 80.5,61.5C 84.5178,58.827 88.5178,56.1603 92.5,53.5C 93.7562,53.4614 94.7562,53.9614 95.5,55C 94.2888,55.8928 94.2888,56.7261 95.5,57.5C 96.4519,55.9547 96.7852,54.288 96.5,52.5C 98.7522,53.3331 100.919,53.3331 103,52.5C 103.5,53 104,53.5 104.5,54C 102.833,54.3333 101.167,54.6667 99.5,55C 100.833,55.6667 100.833,56.3333 99.5,57C 100.693,58.0946 102.027,58.928 103.5,59.5 Z"/></g>
<g><path style="opacity:1" fill="#dae0e5" d="M 92.5,53.5 C 88.5178,56.1603 84.5178,58.827 80.5,61.5C 81.8333,59.8333 83.1667,58.1667 84.5,56.5C 86.8863,55.6267 88.8863,54.1267 90.5,52C 89.0439,51.5774 88.5439,50.7441 89,49.5C 90.6763,49.295 92.1763,50.1283 93.5,52C 92.944,52.3826 92.6107,52.8826 92.5,53.5 Z"/></g>
<g><path style="opacity:1" fill="#c67f1d" d="M 107.5,55.5 C 107.793,59.0823 106.46,60.4157 103.5,59.5C 104.581,57.8664 105.915,56.533 107.5,55.5 Z"/></g>
<g><path style="opacity:1" fill="#416078" d="M 84.5,56.5 C 83.1667,58.1667 81.8333,59.8333 80.5,61.5C 77.4405,62.1573 75.9405,64.1573 76,67.5C 75.3333,65.5 75.3333,63.5 76,61.5C 78.8375,59.7998 81.6709,58.1331 84.5,56.5 Z"/></g>
<g><path style="opacity:1" fill="#d48414" d="M 108.5,58.5 C 109.404,59.209 109.737,60.209 109.5,61.5C 108.262,62.4124 106.928,62.5791 105.5,62C 107.056,61.2798 108.056,60.1132 108.5,58.5 Z"/></g>
<g><path style="opacity:1" fill="#a27127" d="M 100.5,59.5 C 102.011,61.4758 102.844,63.8091 103,66.5C 104.516,63.9938 106.682,63.1605 109.5,64C 108.833,64.3333 108.167,64.6667 107.5,65C 109.044,65.2896 110.377,65.9563 111.5,67C 108.169,66.1822 104.836,66.3489 101.5,67.5C 101.649,68.552 101.483,69.552 101,70.5C 100.346,71.6956 99.8457,71.6956 99.5,70.5C 99.2214,66.8757 99.5547,63.2091 100.5,59.5 Z"/></g>
<g><path style="opacity:1" fill="#bb7a1d" d="M 90.5,69.5 C 90.1667,69.5 89.8333,69.5 89.5,69.5C 86.9179,69.0254 84.9179,69.6921 83.5,71.5C 82.448,71.6495 81.448,71.4828 80.5,71C 81.3366,69.9887 81.67,68.8221 81.5,67.5C 86.7154,68.2976 91.2154,66.9642 95,63.5C 94.5404,66.1461 93.0404,68.1461 90.5,69.5 Z"/></g>
<g><path style="opacity:1" fill="#b17722" d="M 101.5,74.5 C 101.857,72.4109 102.523,70.4109 103.5,68.5C 104.415,69.3279 105.081,70.3279 105.5,71.5C 104.053,71.6772 102.719,72.6772 101.5,74.5 Z"/></g>
<g><path style="opacity:1" fill="#816433" d="M 107.5,69.5 C 109.103,69.3118 110.437,69.8118 111.5,71C 109.109,71.6914 109.109,72.6914 111.5,74C 110.057,75.0672 108.724,76.2338 107.5,77.5C 104.936,75.9813 104.936,74.4813 107.5,73C 106.829,72.0138 106.829,70.8471 107.5,69.5 Z"/></g>
<g><path style="opacity:1" fill="#dce2e6" d="M 89.5,69.5 C 89.8333,69.5 90.1667,69.5 90.5,69.5C 91.2389,69.369 91.9056,69.5357 92.5,70C 91.7433,71.5122 90.7433,72.8455 89.5,74C 89.8333,74.3333 90.1667,74.6667 90.5,75C 89.3333,76.1667 88.1667,77.3333 87,78.5C 87.6962,75.5623 88.5296,72.5623 89.5,69.5 Z"/></g>
<g><path style="opacity:1" fill="#85662f" d="M 101.5,74.5 C 101.291,75.9217 100.791,77.255 100,78.5C 99.2274,76.6476 99.7274,75.3143 101.5,74.5 Z"/></g>
<g><path style="opacity:1" fill="#c97f17" d="M 106.5,80.5 C 107.756,80.4614 108.756,80.9614 109.5,82C 107.833,84 106.167,84 104.5,82C 105.416,81.7216 106.082,81.2216 106.5,80.5 Z"/></g>
<g><path style="opacity:1" fill="#d38415" d="M 101.5,78.5 C 102.643,81.0679 102.476,83.7346 101,86.5C 100.398,83.7795 100.565,81.1128 101.5,78.5 Z"/></g>
<g><path style="opacity:1" fill="#dbe1e6" d="M 82.5,100.5 C 81.6805,97.6946 81.1805,94.6946 81,91.5C 80.1779,93.7885 79.5112,96.1218 79,98.5C 76.5986,92.3483 77.9319,87.0149 83,82.5C 83.1626,84.3867 82.3293,85.8867 80.5,87C 80.727,88.1353 81.0604,89.302 81.5,90.5C 84.0058,84.8474 87.5058,79.8474 92,75.5C 93.4463,79.4922 91.9463,82.3255 87.5,84C 88.5,84.3333 89.5,84.6667 90.5,85C 89.1667,85.6667 87.8333,86.3333 86.5,87C 87.3452,88.5581 86.6785,89.5581 84.5,90C 85.1667,91.6667 85.8333,93.3333 86.5,95C 84.5612,96.4321 83.2279,98.2654 82.5,100.5 Z"/></g>
<g><path style="opacity:1" fill="#ce8217" d="M 103.5,84.5 C 106.897,84.7372 108.73,86.4039 109,89.5C 108.147,87.8753 107.147,87.5419 106,88.5C 104.519,87.5291 103.685,86.1958 103.5,84.5 Z"/></g>
<g><path style="opacity:1" fill="#8b682c" d="M 103.5,91.5 C 103.207,95.2213 102.541,95.0546 101.5,91C 101.667,90.5 101.833,90 102,89.5C 102.278,90.4158 102.778,91.0825 103.5,91.5 Z"/></g>
<g><path style="opacity:1" fill="#c87f19" d="M 103.5,91.5 C 103.369,90.7611 103.536,90.0944 104,89.5C 110.133,93.4288 109.967,94.0954 103.5,91.5 Z"/></g>
<g><path style="opacity:1" fill="#e0e5e9" d="M 87.5,99.5 C 86.8333,99.5 86.5,99.1667 86.5,98.5C 88.3606,95.9784 90.3606,93.4784 92.5,91C 94.5472,90.946 94.5472,91.946 92.5,94C 92.8333,94.3333 93.1667,94.6667 93.5,95C 91.0958,95.5079 90.4291,96.6745 91.5,98.5C 90.3112,99.4287 88.9778,99.762 87.5,99.5 Z"/></g>
<g><path style="opacity:1" fill="#b87a23" d="M 71.5,108.5 C 71.5,108.833 71.5,109.167 71.5,109.5C 67.8045,106.267 66.1379,102.1 66.5,97C 66.464,94.3701 66.964,91.8701 68,89.5C 69.1667,91.8333 70.3333,94.1667 71.5,96.5C 71.1543,97.6956 70.6543,97.6956 70,96.5C 68.542,91.896 67.7087,91.7294 67.5,96C 68.4009,100.376 69.7342,104.543 71.5,108.5 Z"/></g>
<g><path style="opacity:1" fill="#b6791e" d="M 99.5,95.5 C 100.573,96.2506 100.74,97.2506 100,98.5C 98.8867,100.329 97.3867,101.163 95.5,101C 97.4641,99.549 98.7974,97.7157 99.5,95.5 Z"/></g>
<g><path style="opacity:1" fill="#8297a7" d="M 65.5,101.5 C 64.8333,102.167 64.1667,102.833 63.5,103.5C 62.3493,98.3497 62.1826,93.0164 63,87.5C 65.1529,85.5561 67.6529,85.0561 70.5,86C 68.567,86.2511 66.7337,86.7511 65,87.5C 64.1849,92.3522 64.3516,97.0189 65.5,101.5 Z"/></g>
<g><path style="opacity:1" fill="#a1b2bd" d="M 86.5,98.5 C 86.5,99.1667 86.8333,99.5 87.5,99.5C 88.9526,100.825 88.6192,101.658 86.5,102C 82.7487,102.749 79.082,103.749 75.5,105C 73.7222,108.719 71.5555,112.219 69,115.5C 67.6859,112.911 67.0192,110.244 67,107.5C 68,108.833 69,110.167 70,111.5C 70.7172,110.956 71.2172,110.289 71.5,109.5C 71.5,109.167 71.5,108.833 71.5,108.5C 72.339,107.359 73.0057,106.026 73.5,104.5C 76.6638,103.309 79.6638,101.975 82.5,100.5C 84.0618,100.267 85.3951,99.6005 86.5,98.5 Z"/></g>
<g><path style="opacity:1" fill="#ce821b" d="M 80.5,107.5 C 79.1667,106.167 77.8333,106.167 76.5,107.5C 76.7911,106.351 77.6244,105.684 79,105.5C 83.3221,106.921 87.3221,106.255 91,103.5C 91.0885,105.113 90.2552,106.28 88.5,107C 85.854,107.497 83.1873,107.664 80.5,107.5 Z"/></g>
<g><path style="opacity:1" fill="#d38418" d="M 115.5,105.5 C 120.02,109.817 121.686,115.151 120.5,121.5C 119.196,122.987 118.03,124.654 117,126.5C 116.329,127.252 115.496,127.586 114.5,127.5C 119.788,122.106 120.622,116.106 117,109.5C 113.452,107.637 111.118,104.97 110,101.5C 111.451,103.464 113.284,104.797 115.5,105.5 Z"/></g>
<g><path style="opacity:1" fill="#69685c" d="M 80.5,107.5 C 80.5,107.833 80.5,108.167 80.5,108.5C 76.4223,108.26 74.2556,110.26 74,114.5C 73.5026,117.146 73.3359,119.813 73.5,122.5C 72.8826,122.389 72.3826,122.056 72,121.5C 71.9605,119.276 71.7938,117.276 71.5,115.5C 72.6803,112.46 74.347,109.794 76.5,107.5C 77.8333,106.167 79.1667,106.167 80.5,107.5 Z"/></g>
<g><path style="opacity:1" fill="#d9e0e5" d="M 82.5,109.5 C 82.7352,108.903 83.2352,108.57 84,108.5C 85.5,109 87,109.5 88.5,110C 87.8333,110.333 87.1667,110.667 86.5,111C 87.8333,111.333 89.1667,111.667 90.5,112C 90.1667,112.333 89.8333,112.667 89.5,113C 90.8333,113.333 92.1667,113.667 93.5,114C 93.1667,114.333 92.8333,114.667 92.5,115C 95.7145,115.274 98.3812,116.607 100.5,119C 98.8107,118.866 97.144,118.366 95.5,117.5C 92.4588,116.771 89.4588,115.604 86.5,114C 85.6719,112.008 84.3386,110.508 82.5,109.5 Z"/></g>
<g><path style="opacity:1" fill="#36546b" d="M 115.5,105.5 C 122.621,109.145 124.287,114.479 120.5,121.5C 121.686,115.151 120.02,109.817 115.5,105.5 Z"/></g>
<g><path style="opacity:1" fill="#2f526c" d="M 82.5,109.5 C 84.3386,110.508 85.6719,112.008 86.5,114C 89.4588,115.604 92.4588,116.771 95.5,117.5C 94.2223,117.782 93.2223,118.449 92.5,119.5C 91.0193,117.753 89.0193,116.586 86.5,116C 84.2663,114.362 82.933,112.195 82.5,109.5 Z"/></g>
<g><path style="opacity:1" fill="#d2dae0" d="M 95.5,117.5 C 94.4976,121.84 93.3309,126.174 92,130.5C 91.0565,129.737 90.5565,128.737 90.5,127.5C 91.3779,124.87 92.0445,122.203 92.5,119.5C 93.2223,118.449 94.2223,117.782 95.5,117.5 Z"/></g>
<g><path style="opacity:1" fill="#cd8218" d="M 71.5,115.5 C 71.7938,117.276 71.9605,119.276 72,121.5C 72.3826,122.056 72.8826,122.389 73.5,122.5C 73.7692,124.429 73.2692,126.095 72,127.5C 71.6258,126.584 71.1258,125.75 70.5,125C 70.3668,121.881 70.7001,118.714 71.5,115.5 Z"/></g>
<g><path style="opacity:1" fill="#ebeef1" d="M 109.5,118.5 C 110.043,118.56 110.376,118.893 110.5,119.5C 108.533,123.344 107.033,127.344 106,131.5C 104.668,126.415 105.835,122.081 109.5,118.5 Z"/></g>
<g><path style="opacity:1" fill="#28455b" d="M 120.5,121.5 C 121.776,123.587 123.276,125.587 125,127.5C 125.42,131.191 125.92,134.858 126.5,138.5C 129.766,138.433 131.266,140.099 131,143.5C 132.307,144.772 133.807,145.772 135.5,146.5C 133.99,148.689 131.99,150.023 129.5,150.5C 126.746,148.947 125.913,146.614 127,143.5C 128.007,146.803 130.173,147.97 133.5,147C 132.207,146.51 130.873,146.343 129.5,146.5C 130.422,142.518 128.922,140.184 125,139.5C 124.667,135.833 124.333,132.167 124,128.5C 123.282,125.766 121.782,125.1 119.5,126.5C 120,127.5 120.5,128.5 121,129.5C 121.667,128.167 122.333,128.167 123,129.5C 123.241,133.639 123.407,137.639 123.5,141.5C 123.66,143.199 123.494,144.866 123,146.5C 122.094,143.879 121.594,144.046 121.5,147C 121.528,148.07 121.861,148.903 122.5,149.5C 124.85,151.213 125.85,153.547 125.5,156.5C 121.779,153.222 119.779,149.056 119.5,144C 118.833,143.333 118.167,143.333 117.5,144C 116.837,145.518 115.837,146.685 114.5,147.5C 115.212,145.072 116.212,142.739 117.5,140.5C 115.618,137.787 113.951,134.953 112.5,132C 113.414,130.594 114.08,129.094 114.5,127.5C 115.496,127.586 116.329,127.252 117,126.5C 118.03,124.654 119.196,122.987 120.5,121.5 Z"/></g>
<g><path style="opacity:1" fill="#dfe4e8" d="M 118.5,130.5 C 119.687,133.98 120.187,137.647 120,141.5C 118.585,138.042 118.085,134.375 118.5,130.5 Z"/></g>
<g><path style="opacity:1" fill="#758a9a" d="M 106.5,137.5 C 106.946,140.01 106.28,142.01 104.5,143.5C 105.952,140.306 105.619,137.306 103.5,134.5C 103.369,133.761 103.536,133.094 104,132.5C 105.372,133.91 106.205,135.577 106.5,137.5 Z"/></g>
<g><path style="opacity:1" fill="#dc8714" d="M 114.5,127.5 C 114.08,129.094 113.414,130.594 112.5,132C 113.951,134.953 115.618,137.787 117.5,140.5C 116.212,142.739 115.212,145.072 114.5,147.5C 113.075,149.031 112.409,148.698 112.5,146.5C 113.86,144.954 114.86,143.12 115.5,141C 113.709,138.207 112.375,135.207 111.5,132C 111.522,129.817 112.522,128.317 114.5,127.5 Z"/></g>
<g><path style="opacity:1" fill="#c07c1b" d="M 103.5,134.5 C 105.619,137.306 105.952,140.306 104.5,143.5C 103.075,145.031 102.409,144.698 102.5,142.5C 103.671,137.08 101.671,132.913 96.5,130C 98.8333,129.333 101.167,129.333 103.5,130C 101.226,131.355 101.226,132.855 103.5,134.5 Z"/></g>
<g><path style="opacity:1" fill="#d88516" d="M 129.5,150.5 C 129.657,151.873 129.49,153.207 129,154.5C 128.667,153.833 128.333,153.167 128,152.5C 127.626,154.491 126.793,156.158 125.5,157.5C 125.5,157.167 125.5,156.833 125.5,156.5C 125.85,153.547 124.85,151.213 122.5,149.5C 122.81,148.262 123.31,148.262 124,149.5C 124.801,146.633 124.634,143.966 123.5,141.5C 123.407,137.639 123.241,133.639 123,129.5C 122.333,128.167 121.667,128.167 121,129.5C 120.5,128.5 120,127.5 119.5,126.5C 121.782,125.1 123.282,125.766 124,128.5C 124.333,132.167 124.667,135.833 125,139.5C 128.922,140.184 130.422,142.518 129.5,146.5C 130.873,146.343 132.207,146.51 133.5,147C 130.173,147.97 128.007,146.803 127,143.5C 125.913,146.614 126.746,148.947 129.5,150.5 Z"/></g>
<g><path style="opacity:1" fill="#73838e" d="M 112.5,146.5 C 112.409,148.698 113.075,149.031 114.5,147.5C 114.25,149.674 113.25,151.341 111.5,152.5C 111.631,151.761 111.464,151.094 111,150.5C 109.489,152.862 107.989,155.195 106.5,157.5C 106.167,157.5 105.833,157.5 105.5,157.5C 105.104,154.956 105.771,152.789 107.5,151C 107.272,150.601 106.938,150.435 106.5,150.5C 108.268,147.838 108.935,144.838 108.5,141.5C 109.302,142.952 109.802,144.618 110,146.5C 110.57,138.628 111.403,138.628 112.5,146.5 Z"/></g>
<g><path style="opacity:1" fill="#627786" d="M 102.5,142.5 C 102.409,144.698 103.075,145.031 104.5,143.5C 103.66,145.853 102.326,147.853 100.5,149.5C 100.631,148.761 100.464,148.094 100,147.5C 98.4758,149.898 96.9758,152.231 95.5,154.5C 95.6567,153.127 95.49,151.793 95,150.5C 94.8019,152.382 94.3019,154.048 93.5,155.5C 93.3379,153.473 93.5045,151.473 94,149.5C 95.7331,147.277 97.2331,144.944 98.5,142.5C 97.4239,140.014 96.0906,137.681 94.5,135.5C 94.8966,134.475 95.5632,134.308 96.5,135C 99.1664,137.145 101.166,139.645 102.5,142.5 Z"/></g>
<g><path style="opacity:1" fill="#84662f" d="M 123.5,141.5 C 124.634,143.966 124.801,146.633 124,149.5C 123.31,148.262 122.81,148.262 122.5,149.5C 121.861,148.903 121.528,148.07 121.5,147C 121.594,144.046 122.094,143.879 123,146.5C 123.494,144.866 123.66,143.199 123.5,141.5 Z"/></g>
<g><path style="opacity:1" fill="#eaedf0" d="M 95.5,154.5 C 95.5,155.5 95.5,156.5 95.5,157.5C 92.678,160.021 92.0113,159.354 93.5,155.5C 94.3019,154.048 94.8019,152.382 95,150.5C 95.49,151.793 95.6567,153.127 95.5,154.5 Z"/></g>
<g><path style="opacity:1" fill="#b27827" d="M 100.5,149.5 C 99.6618,149.842 99.3284,150.508 99.5,151.5C 98.1786,153.769 97.6786,156.103 98,158.5C 97.3333,159.167 96.6667,159.833 96,160.5C 96.1085,159.231 95.9418,158.231 95.5,157.5C 95.5,156.5 95.5,155.5 95.5,154.5C 96.9758,152.231 98.4758,149.898 100,147.5C 100.464,148.094 100.631,148.761 100.5,149.5 Z"/></g>
<g><path style="opacity:1" fill="#c57e1d" d="M 111.5,152.5 C 110.356,154.534 109.023,156.534 107.5,158.5C 107.855,159.522 108.522,160.189 109.5,160.5C 109.5,160.833 109.5,161.167 109.5,161.5C 109.217,162.289 108.717,162.956 108,163.5C 107.187,161.564 106.687,159.564 106.5,157.5C 107.989,155.195 109.489,152.862 111,150.5C 111.464,151.094 111.631,151.761 111.5,152.5 Z"/></g>
<g><path style="opacity:1" fill="#455b6b" d="M 111.5,152.5 C 111.416,155.327 110.75,157.994 109.5,160.5C 108.522,160.189 107.855,159.522 107.5,158.5C 109.023,156.534 110.356,154.534 111.5,152.5 Z"/></g>
<g><path style="opacity:1" fill="#2f4551" d="M 129.5,150.5 C 130.622,152.288 130.789,154.288 130,156.5C 128,157.167 126.667,158.5 126,160.5C 125.517,159.552 125.351,158.552 125.5,157.5C 126.793,156.158 127.626,154.491 128,152.5C 128.333,153.167 128.667,153.833 129,154.5C 129.49,153.207 129.657,151.873 129.5,150.5 Z"/></g>
<g><path style="opacity:1" fill="#325168" d="M 99.5,151.5 C 101.365,159.466 98.5316,162.466 91,160.5C 90.7506,158.332 91.5839,156.665 93.5,155.5C 92.0113,159.354 92.678,160.021 95.5,157.5C 95.9418,158.231 96.1085,159.231 96,160.5C 96.6667,159.833 97.3333,159.167 98,158.5C 97.6786,156.103 98.1786,153.769 99.5,151.5 Z"/></g>
<g><path style="opacity:1" fill="#284a63" d="M 106.5,150.5 C 106.938,150.435 107.272,150.601 107.5,151C 105.771,152.789 105.104,154.956 105.5,157.5C 105.833,157.5 106.167,157.5 106.5,157.5C 106.687,159.564 107.187,161.564 108,163.5C 108.717,162.956 109.217,162.289 109.5,161.5C 110.645,162.793 110.311,163.959 108.5,165C 103.502,166.33 101.336,164.496 102,159.5C 103.556,156.402 105.056,153.402 106.5,150.5 Z"/></g>
<g><path style="opacity:1" fill="#c6d0d7" d="M 105.5,157.5 C 105.663,159.857 105.497,162.19 105,164.5C 103.046,161.994 103.213,159.66 105.5,157.5 Z"/></g>
</svg>
