<?xml version="1.0" standalone="no"?>
<!DOCTYPE svg PUBLIC "-//W3C//DTD SVG 20010904//EN"
 "http://www.w3.org/TR/2001/REC-SVG-20010904/DTD/svg10.dtd">
<svg version="1.0" xmlns="http://www.w3.org/2000/svg"
 width="513.000000pt" height="513.000000pt" viewBox="0 0 513.000000 513.000000"
 preserveAspectRatio="xMidYMid meet">

<g transform="translate(0.000000,513.000000) scale(0.100000,-0.100000)"
fill="#000000" stroke="none">
<path d="M2360 4619 c-232 -23 -489 -98 -704 -203 -569 -278 -986 -816 -1111
-1431 -31 -151 -48 -341 -43 -466 4 -114 14 -129 81 -129 26 0 47 -5 49 -12 2
-6 19 -13 36 -14 18 -1 39 -7 46 -13 7 -6 21 -9 30 -5 11 4 16 1 16 -10 0 -11
8 -15 30 -12 19 2 30 -1 30 -9 0 -15 32 -25 83 -25 20 0 37 -4 37 -10 0 -5 23
-12 51 -16 28 -4 45 -10 39 -14 -17 -10 -1 -17 38 -18 18 0 39 -5 45 -10 10
-8 63 -22 69 -18 1 0 4 249 8 551 l6 550 26 82 c67 214 210 386 407 487 183
94 234 98 1006 93 591 -3 613 -4 695 -26 230 -59 423 -215 528 -423 88 -177
92 -216 86 -1006 -6 -719 -8 -748 -61 -877 -62 -149 -195 -304 -330 -384 -164
-97 -284 -121 -615 -121 -154 0 -228 -3 -228 -11 0 -5 -4 -7 -10 -4 -5 3 -10
-2 -10 -11 0 -10 3 -15 6 -11 4 3 13 -1 21 -9 9 -8 21 -13 29 -10 7 3 21 -12
34 -37 12 -23 31 -48 41 -55 11 -7 16 -18 13 -24 -5 -7 -1 -9 9 -5 11 4 17 1
17 -6 0 -7 9 -23 20 -35 11 -12 20 -28 20 -37 0 -8 6 -15 13 -15 8 0 7 -3 -2
-9 -12 -8 -9 -11 12 -16 17 -5 27 -14 27 -26 0 -10 4 -19 9 -19 8 0 20 -27 25
-55 1 -5 7 -9 14 -8 6 2 14 -13 18 -31 4 -24 10 -33 20 -29 9 3 14 -2 14 -14
0 -10 8 -35 18 -55 l18 -35 81 23 c235 68 502 209 703 371 97 79 271 258 342
353 225 300 364 644 409 1013 15 127 7 472 -15 587 -84 445 -276 813 -585
1120 -436 432 -1051 650 -1661 589z m534 -3681 c-3 -4 -9 -8 -15 -8 -5 0 -9 4
-9 8 0 5 7 9 15 9 8 0 12 -4 9 -9z"/>
<path d="M1995 3751 c-148 -8 -229 -34 -334 -105 -134 -91 -220 -225 -250
-390 -7 -39 -11 -259 -11 -624 0 -594 -1 -579 45 -595 19 -7 19 -6 3 7 -10 7
-18 17 -18 21 0 4 6 3 13 -2 6 -5 31 -15 55 -23 23 -7 42 -19 42 -26 0 -7 12
-14 28 -16 15 -2 26 -8 24 -15 -1 -7 5 -13 14 -13 8 0 12 -4 9 -10 -3 -5 3
-10 14 -10 11 0 25 -9 31 -20 8 -15 17 -19 32 -14 12 4 18 2 14 -4 -3 -5 12
-12 34 -16 29 -5 42 -13 52 -33 7 -15 24 -30 38 -33 16 -4 26 -14 28 -29 3
-19 8 -22 29 -16 20 5 24 3 20 -9 -6 -15 12 -26 44 -26 10 0 19 -4 19 -9 0 -8
37 -24 53 -22 4 1 6 -2 6 -6 -4 -27 3 -42 16 -37 9 4 15 0 15 -9 0 -8 -6 -17
-12 -20 -7 -2 2 -4 19 -5 21 0 41 -10 57 -26 24 -26 43 -35 30 -14 -4 7 -3 8
4 4 7 -4 12 -14 12 -21 0 -9 6 -12 17 -8 11 4 14 3 9 -5 -4 -7 -1 -12 7 -12 8
0 17 -7 21 -15 3 -8 14 -15 24 -15 25 0 104 -69 95 -83 -3 -6 -1 -7 6 -3 6 4
14 0 17 -8 3 -9 10 -16 16 -16 5 0 20 -11 33 -25 12 -14 38 -30 56 -35 19 -6
192 -10 389 -10 281 0 368 3 419 15 156 37 316 163 384 305 67 138 66 118 67
873 2 659 1 685 -19 760 -11 43 -35 106 -53 140 -46 86 -155 194 -244 240
-129 66 -137 67 -749 71 -302 2 -604 0 -670 -3z m1422 -267 c69 -33 109 -127
89 -208 -9 -36 -65 -96 -103 -112 -153 -64 -305 109 -219 250 47 78 150 109
233 70z m-640 -205 c267 -68 445 -239 515 -494 29 -109 31 -319 3 -415 -97
-335 -362 -550 -700 -567 -92 -5 -124 -2 -195 16 -290 73 -495 276 -566 561
-24 97 -24 258 1 355 75 297 313 517 610 566 75 12 244 1 332 -22z"/>
<path d="M2425 3031 c-265 -76 -416 -372 -325 -635 28 -81 46 -111 110 -179
191 -205 504 -209 703 -10 98 98 147 220 147 368 0 192 -89 346 -243 418 -113
54 -281 70 -392 38z"/>
<path d="M1730 1880 c0 -5 5 -10 10 -10 6 0 10 5 10 10 0 6 -4 10 -10 10 -5 0
-10 -4 -10 -10z"/>
</g>
</svg>
