<?xml version="1.0" standalone="no"?>
<!DOCTYPE svg PUBLIC "-//W3C//DTD SVG 20010904//EN"
 "http://www.w3.org/TR/2001/REC-SVG-20010904/DTD/svg10.dtd">
<svg version="1.0" xmlns="http://www.w3.org/2000/svg"
 width="1600.000000pt" height="1600.000000pt" viewBox="0 0 1600.000000 1600.000000"
 preserveAspectRatio="xMidYMid meet">

<g transform="translate(0.000000,1600.000000) scale(0.100000,-0.100000)"
fill="#000000" stroke="none">
<path d="M1170 15985 c-301 -38 -583 -183 -798 -409 -207 -220 -331 -489 -361
-785 -15 -145 -15 -13437 0 -13582 55 -542 437 -999 964 -1154 194 -57 18 -54
3873 -55 l3552 0 0 3190 0 3190 -860 0 -860 0 0 1160 0 1160 859 0 859 0 5
593 c4 505 8 622 26 797 98 961 329 1674 748 2306 477 720 1326 1108 2668
1219 276 23 801 30 1230 16 204 -7 378 -14 388 -17 16 -5 17 -70 17 -1175 l0
-1169 -27 0 c-16 0 -77 4 -138 10 -523 45 -1020 25 -1363 -56 -280 -66 -453
-156 -635 -333 -195 -190 -294 -376 -332 -632 -35 -231 -64 -840 -65 -1351 l0
-208 1280 0 1280 0 0 -1160 0 -1160 -1280 0 -1280 0 0 -3190 0 -3190 1893 0
c2050 1 2025 0 2212 55 524 154 905 607 964 1147 15 136 15 13443 0 13589 -55
542 -437 1000 -964 1154 -197 58 259 54 -7035 54 -5475 -1 -6734 -4 -6820 -14z"/>
</g>
</svg>
